<svg width="1440" height="67" viewBox="0 0 1440 67" fill="none" xmlns="http://www.w3.org/2000/svg">
<path d="M69.776 33.84H71.328C71.104 36.576 69.216 38.16 66.304 38.16C63.312 38.16 60.896 36.32 60.896 32.4C60.896 28.48 63.312 26.64 66.304 26.64C69.216 26.64 71.104 28.224 71.328 30.96H69.776C69.6 29.008 68.304 27.936 66.304 27.936C64.016 27.936 62.432 29.408 62.432 32.4C62.432 35.392 64.016 36.864 66.304 36.864C68.304 36.864 69.6 35.792 69.776 33.84ZM76.5246 38.16C74.3006 38.16 72.7166 36.768 72.7166 34C72.7166 31.232 74.3006 29.84 76.5246 29.84C78.7486 29.84 80.3486 31.232 80.3486 34C80.3486 36.768 78.7486 38.16 76.5246 38.16ZM76.5246 37.008C77.9006 37.008 78.8286 36 78.8286 34C78.8286 32 77.9006 30.992 76.5246 30.992C75.1646 30.992 74.2366 32 74.2366 34C74.2366 36 75.1646 37.008 76.5246 37.008ZM83.522 26.8V38H82.082V26.8H83.522ZM87.0964 26.8V38H85.6564V26.8H87.0964ZM96.1428 35.6C95.9028 37.2 94.5268 38.16 92.6388 38.16C90.4148 38.16 88.8148 36.784 88.8148 34C88.8148 31.216 90.3988 29.84 92.6228 29.84C94.7348 29.84 96.3028 31.248 96.3028 34V34.432H90.3028C90.3508 36.144 91.2948 37.008 92.6388 37.008C93.8228 37.008 94.4468 36.416 94.6388 35.6H96.1428ZM92.6228 30.992C91.3588 30.992 90.4628 31.76 90.3188 33.28H94.8148C94.6868 31.776 93.8388 30.992 92.6228 30.992ZM99.1279 34C99.1279 36 100.056 37.008 101.416 37.008C102.616 37.008 103.368 36.256 103.48 34.96H105C104.824 36.976 103.512 38.16 101.416 38.16C99.1919 38.16 97.6079 36.768 97.6079 34C97.6079 31.232 99.1919 29.84 101.416 29.84C103.512 29.84 104.824 31.024 105 33.04H103.48C103.368 31.744 102.616 30.992 101.416 30.992C100.056 30.992 99.1279 32 99.1279 34ZM108.549 35.68C108.549 36.576 108.885 36.848 109.589 36.848H110.677V38H109.189C107.829 38 107.109 37.456 107.109 35.888V31.152H105.733V30H107.109V27.92H108.549V30H110.677V31.152H108.549V35.68ZM113.535 26.8V28.304H112.015V26.8H113.535ZM113.503 30V38H112.063V30H113.503ZM119.03 38.16C116.806 38.16 115.222 36.768 115.222 34C115.222 31.232 116.806 29.84 119.03 29.84C121.254 29.84 122.854 31.232 122.854 34C122.854 36.768 121.254 38.16 119.03 38.16ZM119.03 37.008C120.406 37.008 121.334 36 121.334 34C121.334 32 120.406 30.992 119.03 30.992C117.67 30.992 116.742 32 116.742 34C116.742 36 117.67 37.008 119.03 37.008ZM125.995 30V31.488C126.475 30.416 127.451 29.84 128.667 29.84C130.283 29.84 131.387 30.848 131.387 32.992V38H129.947V33.152C129.947 31.696 129.259 31.024 128.075 31.024C126.827 31.024 126.027 31.84 126.027 33.424V38H124.587V30H125.995ZM133.25 32.144C133.25 30.672 134.45 29.84 136.178 29.84C138.114 29.84 139.314 30.816 139.33 32.24H137.906C137.842 31.488 137.218 30.992 136.178 30.992C135.266 30.992 134.658 31.408 134.658 32.064C134.658 33.984 139.49 32.608 139.49 35.76C139.49 37.312 138.194 38.16 136.386 38.16C134.354 38.16 132.994 37.136 132.978 35.6H134.418C134.466 36.448 135.202 37.008 136.386 37.008C137.426 37.008 138.082 36.544 138.082 35.824C138.082 33.872 133.25 35.264 133.25 32.144Z" fill="#141730"/>
<path d="M172.256 26.8H181.52V28.096H177.616V38H176.144V28.096H172.256V26.8ZM188.092 35.6C187.852 37.2 186.476 38.16 184.588 38.16C182.364 38.16 180.764 36.784 180.764 34C180.764 31.216 182.348 29.84 184.572 29.84C186.684 29.84 188.252 31.248 188.252 34V34.432H182.252C182.3 36.144 183.244 37.008 184.588 37.008C185.772 37.008 186.396 36.416 186.588 35.6H188.092ZM184.572 30.992C183.308 30.992 182.412 31.76 182.268 33.28H186.764C186.636 31.776 185.788 30.992 184.572 30.992ZM191.077 34C191.077 36 192.005 37.008 193.365 37.008C194.565 37.008 195.317 36.256 195.429 34.96H196.949C196.773 36.976 195.461 38.16 193.365 38.16C191.141 38.16 189.557 36.768 189.557 34C189.557 31.232 191.141 29.84 193.365 29.84C195.461 29.84 196.773 31.024 196.949 33.04H195.429C195.317 31.744 194.565 30.992 193.365 30.992C192.005 30.992 191.077 32 191.077 34ZM205.394 32.992V38H203.954V33.152C203.954 31.696 203.266 31.024 202.082 31.024C200.834 31.024 200.034 31.84 200.034 33.424V38H198.594V26.8H200.034V31.424C200.53 30.384 201.474 29.84 202.674 29.84C204.29 29.84 205.394 30.848 205.394 32.992ZM208.873 30V31.488C209.353 30.416 210.329 29.84 211.545 29.84C213.161 29.84 214.265 30.848 214.265 32.992V38H212.825V33.152C212.825 31.696 212.137 31.024 210.953 31.024C209.705 31.024 208.905 31.84 208.905 33.424V38H207.465V30H208.873ZM219.728 38.16C217.504 38.16 215.92 36.768 215.92 34C215.92 31.232 217.504 29.84 219.728 29.84C221.952 29.84 223.552 31.232 223.552 34C223.552 36.768 221.952 38.16 219.728 38.16ZM219.728 37.008C221.104 37.008 222.032 36 222.032 34C222.032 32 221.104 30.992 219.728 30.992C218.368 30.992 217.44 32 217.44 34C217.44 36 218.368 37.008 219.728 37.008ZM226.726 26.8V38H225.286V26.8H226.726ZM232.252 38.16C230.028 38.16 228.444 36.768 228.444 34C228.444 31.232 230.028 29.84 232.252 29.84C234.476 29.84 236.076 31.232 236.076 34C236.076 36.768 234.476 38.16 232.252 38.16ZM232.252 37.008C233.628 37.008 234.556 36 234.556 34C234.556 32 233.628 30.992 232.252 30.992C230.892 30.992 229.964 32 229.964 34C229.964 36 230.892 37.008 232.252 37.008ZM240.738 37.52C238.818 37.52 237.426 36.16 237.426 33.68C237.426 31.2 238.818 29.84 240.738 29.84C242.034 29.84 243.09 30.464 243.634 31.616V30H245.042V37.936C245.042 40.096 243.506 41.36 241.25 41.36C239.026 41.36 237.506 40.048 237.506 38H238.946C238.946 39.328 239.762 40.208 241.25 40.208C242.754 40.208 243.602 39.376 243.602 37.936V35.808C243.042 36.928 242.002 37.52 240.738 37.52ZM241.266 36.368C242.674 36.368 243.602 35.456 243.602 33.68C243.602 31.904 242.674 30.992 241.266 30.992C239.874 30.992 238.93 31.904 238.93 33.68C238.93 35.456 239.874 36.368 241.266 36.368ZM251.229 33.072L252.365 30H253.917L250.253 39.216C249.565 40.96 249.069 41.2 247.709 41.2H246.877V40.048H247.581C248.349 40.048 248.637 39.872 248.989 38.928L249.389 37.84L246.285 30H247.821L248.957 33.072C249.469 34.384 249.789 35.36 250.093 36.432C250.397 35.36 250.733 34.384 251.229 33.072Z" fill="#141730"/>
<path d="M294.768 36.704V38H287.312V26.8H288.768V36.704H294.768ZM299.415 38.16C297.191 38.16 295.607 36.768 295.607 34C295.607 31.232 297.191 29.84 299.415 29.84C301.639 29.84 303.239 31.232 303.239 34C303.239 36.768 301.639 38.16 299.415 38.16ZM299.415 37.008C300.791 37.008 301.719 36 301.719 34C301.719 32 300.791 30.992 299.415 30.992C298.055 30.992 297.127 32 297.127 34C297.127 36 298.055 37.008 299.415 37.008ZM308.365 38.16C306.141 38.16 304.557 36.768 304.557 34C304.557 31.232 306.141 29.84 308.365 29.84C310.589 29.84 312.189 31.232 312.189 34C312.189 36.768 310.589 38.16 308.365 38.16ZM308.365 37.008C309.741 37.008 310.669 36 310.669 34C310.669 32 309.741 30.992 308.365 30.992C307.005 30.992 306.077 32 306.077 34C306.077 36 307.005 37.008 308.365 37.008ZM313.922 38V26.8H315.362V30.768C315.362 31.888 315.33 33.104 315.266 34.256C315.842 33.488 316.498 32.832 317.41 31.888L319.218 30H320.978L317.97 33.12L321.122 38H319.474L316.93 33.984L315.362 35.696V38H313.922ZM323.608 38H322.2V26.8H323.64V31.664C324.2 30.464 325.24 29.84 326.488 29.84C328.408 29.84 329.816 31.312 329.816 34C329.816 36.688 328.408 38.16 326.488 38.16C325.208 38.16 324.168 37.504 323.608 36.272V38ZM325.96 30.992C324.568 30.992 323.64 32.016 323.64 34C323.64 35.984 324.568 37.008 325.96 37.008C327.368 37.008 328.296 35.984 328.296 34C328.296 32.016 327.368 30.992 325.96 30.992ZM334.963 38.16C332.739 38.16 331.155 36.768 331.155 34C331.155 31.232 332.739 29.84 334.963 29.84C337.187 29.84 338.787 31.232 338.787 34C338.787 36.768 337.187 38.16 334.963 38.16ZM334.963 37.008C336.339 37.008 337.267 36 337.267 34C337.267 32 336.339 30.992 334.963 30.992C333.603 30.992 332.675 32 332.675 34C332.675 36 333.603 37.008 334.963 37.008ZM343.912 38.16C341.688 38.16 340.104 36.768 340.104 34C340.104 31.232 341.688 29.84 343.912 29.84C346.136 29.84 347.736 31.232 347.736 34C347.736 36.768 346.136 38.16 343.912 38.16ZM343.912 37.008C345.288 37.008 346.216 36 346.216 34C346.216 32 345.288 30.992 343.912 30.992C342.552 30.992 341.624 32 341.624 34C341.624 36 342.552 37.008 343.912 37.008ZM349.47 38V26.8H350.91V30.768C350.91 31.888 350.878 33.104 350.814 34.256C351.39 33.488 352.046 32.832 352.958 31.888L354.766 30H356.526L353.518 33.12L356.67 38H355.022L352.478 33.984L350.91 35.696V38H349.47Z" fill="#141730"/>
<path d="M637.08 32.7466C637.316 32.8337 637.316 33.1663 637.08 33.2534L634.893 34.0618C630.45 35.7036 626.948 39.2019 625.304 43.6389L624.494 45.8236C624.407 46.0588 624.074 46.0588 623.987 45.8236L623.178 43.6389C621.534 39.2019 618.031 35.7036 613.589 34.0618L611.401 33.2534C611.166 33.1663 611.166 32.8337 611.401 32.7466L613.589 31.9382C618.031 30.2964 621.534 26.7981 623.178 22.3611L623.987 20.1764C624.074 19.9412 624.407 19.9412 624.494 20.1764L625.304 22.3611C626.948 26.7981 630.45 30.2964 634.893 31.9382L637.08 32.7466Z" fill="#C1001F"/>
<path d="M654.415 43.6389L655.225 45.8236C655.268 45.9412 655.373 46 655.479 46L655.479 20C655.373 20 655.268 20.0588 655.225 20.1764L654.415 22.3611C652.772 26.7981 649.269 30.2964 644.826 31.9382L642.639 32.7466C642.404 32.8337 642.404 33.1663 642.639 33.2534L644.826 34.0618C649.269 35.7036 652.772 39.2019 654.415 43.6389Z" fill="#C1001F"/>
<path d="M594.064 22.3611L593.255 20.1764C593.211 20.0588 593.106 20 593.001 20L593.001 46C593.106 46 593.211 45.9412 593.255 45.8236L594.064 43.6389C595.708 39.2019 599.211 35.7036 603.653 34.0618L605.84 33.2534C606.076 33.1663 606.076 32.8337 605.84 32.7466L603.653 31.9382C599.211 30.2964 595.708 26.7981 594.064 22.3611Z" fill="#C1001F"/>
<path d="M668.494 41.8319C670.007 41.4616 670.635 41.2906 670.635 39.6669V26.2779C670.635 24.6542 670.007 24.4832 668.494 24.1129V23.7141H675.945V24.1129C674.061 24.4263 673.233 24.6542 673.233 26.2779V41.2906H676.772C679.37 41.2906 680.769 40.4645 681.739 37.3594H682.196L681.625 42.2307H668.494V41.8319Z" fill="#141730"/>
<path d="M684.16 24.1129V23.7141H691.039V24.1129C689.526 24.4832 688.898 24.6542 688.898 26.2779V39.6669C688.898 41.2906 689.526 41.4616 691.039 41.8319V42.2307H684.16V41.8319C685.673 41.4616 686.301 41.2906 686.301 39.6669V26.2779C686.301 24.6542 685.673 24.4832 684.16 24.1129Z" fill="#141730"/>
<path d="M702.566 23.4292C707.847 23.4292 711.701 27.0756 711.701 32.8015C711.701 38.6129 707.733 42.5156 702.366 42.5156C697.085 42.5156 693.203 38.8692 693.203 33.1433C693.203 27.332 697.199 23.4292 702.566 23.4292ZM702.166 24.4263C698.541 24.4263 696.086 27.5314 696.086 32.3457C696.086 37.6443 698.741 41.5185 702.766 41.5185C706.391 41.5185 708.846 38.4134 708.846 33.5991C708.846 28.3005 706.191 24.4263 702.166 24.4263Z" fill="#141730"/>
<path d="M729.739 42.658H729.225L716.608 27.1325V38.9547C716.608 41.1197 717.378 41.3761 719.319 41.8319V42.2307H712.868V41.8319C714.809 41.3761 715.58 41.1197 715.58 38.9547V25.9076C714.524 24.7396 713.696 24.3123 712.611 24.1129V23.7141H717.064L728.682 37.8722V26.9901C728.682 24.8251 727.912 24.5687 725.971 24.1129V23.7141H732.451V24.1129C730.509 24.5687 729.739 24.8251 729.739 26.9901V42.658Z" fill="#141730"/>
<path d="M739.379 24.1129V23.7141H753.366L753.937 28.5854H753.48C752.51 25.4803 751.111 24.6542 748.513 24.6542H744.117V32.9439H747.172C748.999 32.9439 749.769 31.7475 750.169 29.8388H750.626V36.9606H750.169C749.769 35.052 748.999 33.8555 747.172 33.8555H744.117V39.6669C744.117 41.2906 744.945 41.5185 746.829 41.8319V42.2307H739.379V41.8319C740.892 41.4616 741.52 41.2906 741.52 39.6669V26.2779C741.52 24.6542 740.892 24.4832 739.379 24.1129Z" fill="#141730"/>
<path d="M757.68 41.8319V42.2307H752V41.8319C753.427 41.4331 754.426 40.493 755.14 38.6983L761.277 23.3438H761.705L767.957 38.9832C768.727 40.8918 769.412 41.4616 770.668 41.8319V42.2307H764.103V41.8319C765.644 41.5755 766.073 40.9488 765.416 39.2396L764.503 36.8751H756.995L756.196 38.9262C755.539 40.6639 756.025 41.5755 757.68 41.8319ZM757.623 35.2799H763.875L760.735 27.3035L757.623 35.2799Z" fill="#141730"/>
<path d="M772.038 24.1129V23.7141H780.316C784.57 23.7141 786.968 25.2239 786.968 28.0156C786.968 30.2376 785.34 31.7475 782.714 32.3172C785.854 32.83 787.852 34.5962 787.852 37.4164C787.852 40.5215 785.312 42.2307 780.773 42.2307H772.038V41.8319C773.551 41.4616 774.179 41.2906 774.179 39.6669V26.2779C774.179 24.6542 773.551 24.4832 772.038 24.1129ZM780.117 24.6542H776.777V31.9754H780.117C782.8 31.9754 784.256 30.3801 784.256 28.2151C784.256 26.164 783.057 24.6542 780.117 24.6542ZM780.573 32.9154H776.777V41.2906H780.573C783.799 41.2906 785.141 39.5529 785.141 37.1885C785.141 34.7386 783.542 32.9154 780.573 32.9154Z" fill="#141730"/>
<path d="M789.527 24.1129V23.7141H797.776C802.172 23.7141 804.684 25.3094 804.684 28.2435C804.684 31.1207 802.429 32.83 798.947 33.2003C799.375 33.3997 799.746 33.77 800.174 34.3683L803.885 39.5814C804.97 41.1197 805.598 41.6895 806.511 41.8319V42.2307H802.6L797.548 34.5677C796.948 33.6561 796.406 33.4282 795.435 33.4282H794.265V39.6669C794.265 41.2906 795.036 41.4901 796.834 41.8319V42.2307H789.527V41.8319C791.039 41.4616 791.667 41.2906 791.667 39.6669V26.2779C791.667 24.6542 791.039 24.4832 789.527 24.1129ZM797.548 24.6542H794.265V32.5166H797.576C800.431 32.5166 802.001 30.8074 802.001 28.4429C802.001 26.2494 800.688 24.6542 797.548 24.6542Z" fill="#141730"/>
<path d="M807.93 24.1129V23.7141H814.809V24.1129C813.296 24.4832 812.668 24.6542 812.668 26.2779V39.6669C812.668 41.2906 813.296 41.4616 814.809 41.8319V42.2307H807.93V41.8319C809.443 41.4616 810.071 41.2906 810.071 39.6669V26.2779C810.071 24.6542 809.443 24.4832 807.93 24.1129Z" fill="#141730"/>
<path d="M825.193 24.6257C821.625 24.6257 818.856 27.3604 818.856 32.0608C818.856 37.3879 821.939 40.1796 826.05 40.1796C829.39 40.1796 832.159 38.214 832.444 33.7416H832.929C832.787 39.1256 830.046 42.5156 825.222 42.5156C820.055 42.5156 816.601 38.8123 816.601 33.3427C816.601 27.275 821.054 23.4292 825.964 23.4292C828.419 23.4292 830.018 24.0274 831.873 24.996V30.1237H831.473C830.36 26.107 828.105 24.6257 825.193 24.6257Z" fill="#141730"/>
<path d="M841.577 41.5755C843.718 41.5755 845.06 40.2081 845.06 38.2995C845.06 33.3142 835.44 34.1689 835.44 28.386C835.44 25.3663 837.952 23.4292 841.406 23.4292C843.575 23.4292 845.088 24.0559 846.316 24.8251V29.0697H845.916C845.288 25.9361 843.147 24.3693 840.835 24.3693C838.865 24.3693 837.409 25.5373 837.409 27.2465C837.409 31.7475 847.001 31.0353 847.001 37.0461C847.001 40.3506 844.66 42.5156 840.835 42.5156C838.551 42.5156 836.81 41.9459 835.497 41.1197V36.163H835.925C836.496 40.0942 839.293 41.5755 841.577 41.5755Z" fill="#141730"/>
<path d="M1363.65 33.84H1365.2C1364.97 36.576 1363.09 38.16 1360.17 38.16C1357.18 38.16 1354.77 36.32 1354.77 32.4C1354.77 28.48 1357.18 26.64 1360.17 26.64C1363.09 26.64 1364.97 28.224 1365.2 30.96H1363.65C1363.47 29.008 1362.17 27.936 1360.17 27.936C1357.89 27.936 1356.3 29.408 1356.3 32.4C1356.3 35.392 1357.89 36.864 1360.17 36.864C1362.17 36.864 1363.47 35.792 1363.65 33.84ZM1373.83 38H1372.33L1371.85 36.592C1371.37 37.6 1370.38 38.16 1369.13 38.16C1367.71 38.16 1366.52 37.376 1366.52 35.856C1366.52 32.4 1371.9 34.416 1371.9 32.288C1371.9 31.424 1371.24 31.024 1370.11 31.024C1369.02 31.024 1368.33 31.424 1368.3 32.24H1366.84C1366.86 30.64 1368.09 29.84 1370.11 29.84C1372.11 29.84 1373.34 30.672 1373.34 32.304V35.664C1373.34 36.672 1373.35 36.8 1373.83 38ZM1368.01 35.696C1368.01 36.608 1368.65 37.008 1369.69 37.008C1370.84 37.008 1371.9 36.192 1371.9 34.688V33.504C1370.67 34.352 1368.01 34.048 1368.01 35.696ZM1376.73 30V31.984C1377.13 30.592 1378.06 29.936 1379.26 29.936C1379.5 29.936 1379.66 29.952 1379.82 30V31.328C1379.66 31.28 1379.49 31.248 1379.26 31.248C1377.85 31.248 1376.85 32.064 1376.85 33.744V38H1375.41V30H1376.73ZM1383.13 35.68C1383.13 36.576 1383.47 36.848 1384.17 36.848H1385.26V38H1383.77C1382.41 38 1381.69 37.456 1381.69 35.888V31.152H1380.32V30H1381.69V27.92H1383.13V30H1385.26V31.152H1383.13V35.68ZM1391.57 33.28C1391.57 35.696 1392.45 38.144 1394.15 40.24H1393.06C1391.11 38.224 1390.13 35.712 1390.13 33.28C1390.13 30.864 1391.09 28.368 1393.06 26.32H1394.15C1392.44 28.432 1391.57 30.8 1391.57 33.28ZM1399.34 26.64C1401.72 26.64 1403.4 28.448 1403.4 32.4C1403.4 36.352 1401.72 38.16 1399.34 38.16C1396.96 38.16 1395.29 36.352 1395.29 32.4C1395.29 28.448 1396.96 26.64 1399.34 26.64ZM1399.34 36.864C1400.86 36.864 1401.87 35.632 1401.87 32.4C1401.87 29.168 1400.86 27.936 1399.34 27.936C1397.84 27.936 1396.83 29.168 1396.83 32.4C1396.83 35.632 1397.84 36.864 1399.34 36.864ZM1407.11 33.28C1407.11 30.8 1406.25 28.432 1404.54 26.32H1405.63C1407.59 28.368 1408.55 30.864 1408.55 33.28C1408.55 35.712 1407.58 38.224 1405.63 40.24H1404.54C1406.23 38.144 1407.11 35.696 1407.11 33.28Z" fill="#141730"/>
<path d="M1243.55 38L1240.89 31.36C1240.27 29.792 1239.93 28.944 1239.56 27.84C1239.64 29.04 1239.68 30.288 1239.68 31.664V38H1238.24V26.8H1240.6L1242.7 32.096C1243.52 34.208 1243.9 35.344 1244.19 36.304C1244.49 35.344 1244.88 34.208 1245.69 32.096L1247.79 26.8H1250.16V38H1248.72V31.664C1248.72 30.288 1248.75 29.04 1248.83 27.84C1248.46 28.944 1248.12 29.792 1247.5 31.36L1244.84 38H1243.55ZM1256.51 33.072L1257.65 30H1259.2L1255.54 39.216C1254.85 40.96 1254.35 41.2 1252.99 41.2H1252.16V40.048H1252.86C1253.63 40.048 1253.92 39.872 1254.27 38.928L1254.67 37.84L1251.57 30H1253.1L1254.24 33.072C1254.75 34.384 1255.07 35.36 1255.38 36.432C1255.68 35.36 1256.02 34.384 1256.51 33.072ZM1271.02 38L1269.93 35.152H1264.76L1263.67 38H1262.12L1266.55 26.8H1268.14L1272.57 38H1271.02ZM1265.66 32.816L1265.26 33.856H1269.45L1269.05 32.816C1268.3 30.848 1267.77 29.408 1267.35 28.016C1266.94 29.408 1266.39 30.848 1265.66 32.816ZM1274.92 34C1274.92 36 1275.84 37.008 1277.2 37.008C1278.4 37.008 1279.16 36.256 1279.27 34.96H1280.79C1280.61 36.976 1279.3 38.16 1277.2 38.16C1274.98 38.16 1273.4 36.768 1273.4 34C1273.4 31.232 1274.98 29.84 1277.2 29.84C1279.3 29.84 1280.61 31.024 1280.79 33.04H1279.27C1279.16 31.744 1278.4 30.992 1277.2 30.992C1275.84 30.992 1274.92 32 1274.92 34ZM1283.54 34C1283.54 36 1284.46 37.008 1285.82 37.008C1287.02 37.008 1287.78 36.256 1287.89 34.96H1289.41C1289.23 36.976 1287.92 38.16 1285.82 38.16C1283.6 38.16 1282.02 36.768 1282.02 34C1282.02 31.232 1283.6 29.84 1285.82 29.84C1287.92 29.84 1289.23 31.024 1289.41 33.04H1287.89C1287.78 31.744 1287.02 30.992 1285.82 30.992C1284.46 30.992 1283.54 32 1283.54 34ZM1294.45 38.16C1292.22 38.16 1290.64 36.768 1290.64 34C1290.64 31.232 1292.22 29.84 1294.45 29.84C1296.67 29.84 1298.27 31.232 1298.27 34C1298.27 36.768 1296.67 38.16 1294.45 38.16ZM1294.45 37.008C1295.82 37.008 1296.75 36 1296.75 34C1296.75 32 1295.82 30.992 1294.45 30.992C1293.09 30.992 1292.16 32 1292.16 34C1292.16 36 1293.09 37.008 1294.45 37.008ZM1299.92 35.088V30H1301.36V34.944C1301.36 36.32 1302.02 36.976 1303.16 36.976C1304.36 36.976 1305.12 36.192 1305.12 34.672V30H1306.56V38H1305.16V36.576C1304.68 37.616 1303.75 38.16 1302.56 38.16C1301 38.16 1299.92 37.184 1299.92 35.088ZM1310.11 30V31.488C1310.59 30.416 1311.57 29.84 1312.78 29.84C1314.4 29.84 1315.5 30.848 1315.5 32.992V38H1314.06V33.152C1314.06 31.696 1313.37 31.024 1312.19 31.024C1310.94 31.024 1310.14 31.84 1310.14 33.424V38H1308.7V30H1310.11ZM1319.48 35.68C1319.48 36.576 1319.81 36.848 1320.52 36.848H1321.61V38H1320.12C1318.76 38 1318.04 37.456 1318.04 35.888V31.152H1316.66V30H1318.04V27.92H1319.48V30H1321.61V31.152H1319.48V35.68Z" fill="#141730"/>
<path d="M1083.8 29.792C1083.8 27.792 1085.4 26.64 1087.71 26.64C1090.31 26.64 1091.91 28.016 1091.96 30H1090.43C1090.33 28.72 1089.34 27.904 1087.71 27.904C1086.25 27.904 1085.27 28.624 1085.27 29.728C1085.27 32.784 1092.17 30.368 1092.17 34.848C1092.17 36.992 1090.39 38.16 1088.03 38.16C1085.29 38.16 1083.47 36.72 1083.43 34.592H1084.95C1085.05 35.984 1086.2 36.896 1088.03 36.896C1089.63 36.896 1090.7 36.112 1090.7 34.912C1090.7 31.824 1083.8 34.24 1083.8 29.792ZM1100.9 35.6C1100.66 37.2 1099.28 38.16 1097.39 38.16C1095.17 38.16 1093.57 36.784 1093.57 34C1093.57 31.216 1095.15 29.84 1097.38 29.84C1099.49 29.84 1101.06 31.248 1101.06 34V34.432H1095.06C1095.11 36.144 1096.05 37.008 1097.39 37.008C1098.58 37.008 1099.2 36.416 1099.39 35.6H1100.9ZM1097.38 30.992C1096.11 30.992 1095.22 31.76 1095.07 33.28H1099.57C1099.44 31.776 1098.59 30.992 1097.38 30.992ZM1109.61 38H1108.11L1107.63 36.592C1107.15 37.6 1106.15 38.16 1104.91 38.16C1103.48 38.16 1102.3 37.376 1102.3 35.856C1102.3 32.4 1107.67 34.416 1107.67 32.288C1107.67 31.424 1107.02 31.024 1105.88 31.024C1104.79 31.024 1104.11 31.424 1104.07 32.24H1102.62C1102.63 30.64 1103.87 29.84 1105.88 29.84C1107.88 29.84 1109.11 30.672 1109.11 32.304V35.664C1109.11 36.672 1109.13 36.8 1109.61 38ZM1103.79 35.696C1103.79 36.608 1104.43 37.008 1105.47 37.008C1106.62 37.008 1107.67 36.192 1107.67 34.688V33.504C1106.44 34.352 1103.79 34.048 1103.79 35.696ZM1112.51 30V31.984C1112.91 30.592 1113.84 29.936 1115.04 29.936C1115.28 29.936 1115.44 29.952 1115.6 30V31.328C1115.44 31.28 1115.26 31.248 1115.04 31.248C1113.63 31.248 1112.62 32.064 1112.62 33.744V38H1111.18V30H1112.51ZM1117.95 34C1117.95 36 1118.88 37.008 1120.24 37.008C1121.44 37.008 1122.19 36.256 1122.31 34.96H1123.83C1123.65 36.976 1122.34 38.16 1120.24 38.16C1118.02 38.16 1116.43 36.768 1116.43 34C1116.43 31.232 1118.02 29.84 1120.24 29.84C1122.34 29.84 1123.65 31.024 1123.83 33.04H1122.31C1122.19 31.744 1121.44 30.992 1120.24 30.992C1118.88 30.992 1117.95 32 1117.95 34ZM1132.27 32.992V38H1130.83V33.152C1130.83 31.696 1130.14 31.024 1128.96 31.024C1127.71 31.024 1126.91 31.84 1126.91 33.424V38H1125.47V26.8H1126.91V31.424C1127.41 30.384 1128.35 29.84 1129.55 29.84C1131.17 29.84 1132.27 30.848 1132.27 32.992ZM1144.37 38H1142.87L1142.39 36.592C1141.91 37.6 1140.92 38.16 1139.67 38.16C1138.25 38.16 1137.06 37.376 1137.06 35.856C1137.06 32.4 1142.44 34.416 1142.44 32.288C1142.44 31.424 1141.78 31.024 1140.65 31.024C1139.56 31.024 1138.87 31.424 1138.84 32.24H1137.38C1137.4 30.64 1138.63 29.84 1140.65 29.84C1142.65 29.84 1143.88 30.672 1143.88 32.304V35.664C1143.88 36.672 1143.89 36.8 1144.37 38ZM1138.55 35.696C1138.55 36.608 1139.19 37.008 1140.23 37.008C1141.38 37.008 1142.44 36.192 1142.44 34.688V33.504C1141.21 34.352 1138.55 34.048 1138.55 35.696ZM1147.35 30V31.488C1147.83 30.416 1148.81 29.84 1150.02 29.84C1151.64 29.84 1152.74 30.848 1152.74 32.992V38H1151.3V33.152C1151.3 31.696 1150.62 31.024 1149.43 31.024C1148.18 31.024 1147.38 31.84 1147.38 33.424V38H1145.94V30H1147.35ZM1160.64 38V36.24C1160.1 37.488 1159.04 38.16 1157.74 38.16C1155.82 38.16 1154.43 36.688 1154.43 34C1154.43 31.312 1155.82 29.84 1157.74 29.84C1159.01 29.84 1160.05 30.48 1160.61 31.696V26.8H1162.05V38H1160.64ZM1158.27 30.992C1156.88 30.992 1155.94 32.016 1155.94 34C1155.94 35.984 1156.88 37.008 1158.27 37.008C1159.68 37.008 1160.61 35.984 1160.61 34C1160.61 32.016 1159.68 30.992 1158.27 30.992ZM1170.78 38.16C1168.55 38.16 1166.97 36.768 1166.97 34C1166.97 31.232 1168.55 29.84 1170.78 29.84C1173 29.84 1174.6 31.232 1174.6 34C1174.6 36.768 1173 38.16 1170.78 38.16ZM1170.78 37.008C1172.15 37.008 1173.08 36 1173.08 34C1173.08 32 1172.15 30.992 1170.78 30.992C1169.42 30.992 1168.49 32 1168.49 34C1168.49 36 1169.42 37.008 1170.78 37.008ZM1177.66 30V31.984C1178.06 30.592 1178.99 29.936 1180.19 29.936C1180.43 29.936 1180.59 29.952 1180.75 30V31.328C1180.59 31.28 1180.42 31.248 1180.19 31.248C1178.78 31.248 1177.78 32.064 1177.78 33.744V38H1176.34V30H1177.66ZM1187.83 38V36.24C1187.28 37.488 1186.23 38.16 1184.93 38.16C1183.01 38.16 1181.62 36.688 1181.62 34C1181.62 31.312 1183.01 29.84 1184.93 29.84C1186.2 29.84 1187.24 30.48 1187.8 31.696V26.8H1189.24V38H1187.83ZM1185.46 30.992C1184.07 30.992 1183.12 32.016 1183.12 34C1183.12 35.984 1184.07 37.008 1185.46 37.008C1186.87 37.008 1187.8 35.984 1187.8 34C1187.8 32.016 1186.87 30.992 1185.46 30.992ZM1198.29 35.6C1198.05 37.2 1196.67 38.16 1194.78 38.16C1192.56 38.16 1190.96 36.784 1190.96 34C1190.96 31.216 1192.54 29.84 1194.77 29.84C1196.88 29.84 1198.45 31.248 1198.45 34V34.432H1192.45C1192.49 36.144 1193.44 37.008 1194.78 37.008C1195.97 37.008 1196.59 36.416 1196.78 35.6H1198.29ZM1194.77 30.992C1193.5 30.992 1192.61 31.76 1192.46 33.28H1196.96C1196.83 31.776 1195.98 30.992 1194.77 30.992ZM1201.5 30V31.984C1201.9 30.592 1202.82 29.936 1204.02 29.936C1204.26 29.936 1204.42 29.952 1204.58 30V31.328C1204.42 31.28 1204.25 31.248 1204.02 31.248C1202.62 31.248 1201.61 32.064 1201.61 33.744V38H1200.17V30H1201.5Z" fill="#141730"/>
<path d="M0 66H1440" stroke="#141730" stroke-opacity="0.2" stroke-dasharray="3 4"/>
</svg>
