<svg width="1440" height="180" viewBox="0 0 1440 180" fill="none" xmlns="http://www.w3.org/2000/svg">
<path d="M132.256 140.8H133.776L135.488 146.496C135.936 147.968 136.192 149.024 136.448 150.192C136.736 149.024 137.008 147.968 137.456 146.496L139.2 140.8H140.56L142.304 146.496C142.752 147.968 143.024 149.024 143.312 150.192C143.568 149.024 143.824 147.968 144.272 146.496L145.984 140.8H147.504L143.984 152H142.688L140.896 146.176C140.448 144.72 140.16 143.744 139.872 142.576C139.6 143.744 139.312 144.72 138.864 146.176L137.072 152H135.776L132.256 140.8Z" fill="#141730"/>
<path d="M155.805 152L154.717 149.152H149.549L148.46 152H146.908L151.34 140.8H152.924L157.357 152H155.805ZM150.445 146.816L150.044 147.856H154.236L153.837 146.816C153.085 144.848 152.557 143.408 152.141 142.016C151.725 143.408 151.181 144.848 150.445 146.816Z" fill="#141730"/>
<path d="M158.63 143.792C158.63 141.792 160.23 140.64 162.534 140.64C165.142 140.64 166.742 142.016 166.79 144H165.254C165.158 142.72 164.166 141.904 162.534 141.904C161.078 141.904 160.102 142.624 160.102 143.728C160.102 146.784 166.998 144.368 166.998 148.848C166.998 150.992 165.222 152.16 162.854 152.16C160.118 152.16 158.294 150.72 158.262 148.592H159.782C159.878 149.984 161.03 150.896 162.854 150.896C164.454 150.896 165.526 150.112 165.526 148.912C165.526 145.824 158.63 148.24 158.63 143.792Z" fill="#141730"/>
<path d="M170.429 140.8V145.664H177.101V140.8H178.573V152H177.101V146.96H170.429V152H168.973V140.8H170.429Z" fill="#141730"/>
<path d="M191.758 152L190.67 149.152H185.502L184.414 152H182.862L187.294 140.8H188.878L193.31 152H191.758ZM186.398 146.816L185.998 147.856H190.19L189.79 146.816C189.038 144.848 188.51 143.408 188.094 142.016C187.678 143.408 187.134 144.848 186.398 146.816Z" fill="#141730"/>
<path d="M192.218 140.8H201.482V142.096H197.578V152H196.106V142.096H192.218V140.8Z" fill="#141730"/>
<path d="M211.35 140.8V148.368H213.542V149.584H211.35V152H209.91V149.584H204.806V148.496L209.67 140.8H211.35ZM209.91 148.368V145.104C209.91 144.256 209.91 143.424 209.958 142.608C209.622 143.216 209.19 143.904 208.678 144.736L207.766 146.192C207.238 147.008 206.742 147.744 206.214 148.448C207.126 148.384 208.07 148.368 209.014 148.368H209.91Z" fill="#141730"/>
<path d="M218.584 140.64C220.968 140.64 222.648 142.448 222.648 146.4C222.648 150.352 220.968 152.16 218.584 152.16C216.2 152.16 214.536 150.352 214.536 146.4C214.536 142.448 216.2 140.64 218.584 140.64ZM218.584 150.864C220.104 150.864 221.112 149.632 221.112 146.4C221.112 143.168 220.104 141.936 218.584 141.936C217.08 141.936 216.072 143.168 216.072 146.4C216.072 149.632 217.08 150.864 218.584 150.864Z" fill="#141730"/>
<path d="M228.982 143.152C228.982 144.016 228.753 144.688 228.294 145.168C227.836 145.637 227.222 145.872 226.454 145.872C225.74 145.872 225.148 145.643 224.678 145.184C224.209 144.715 223.975 144.037 223.975 143.152C223.975 142.277 224.198 141.611 224.646 141.152C225.094 140.683 225.708 140.448 226.486 140.448C226.988 140.448 227.425 140.555 227.799 140.768C228.172 140.971 228.46 141.275 228.663 141.68C228.876 142.075 228.982 142.565 228.982 143.152ZM224.982 143.152C224.982 143.771 225.1 144.24 225.335 144.56C225.569 144.869 225.948 145.024 226.471 145.024C226.993 145.024 227.372 144.869 227.607 144.56C227.841 144.24 227.958 143.771 227.958 143.152C227.958 142.523 227.841 142.059 227.607 141.76C227.372 141.451 226.993 141.296 226.471 141.296C225.948 141.296 225.569 141.451 225.335 141.76C225.1 142.059 224.982 142.523 224.982 143.152Z" fill="#141730"/>
<path d="M175.183 96.3017C175.183 98.0975 173.727 99.5534 171.931 99.5534C170.136 99.5534 168.68 98.0975 168.68 96.3017C168.68 94.5058 170.136 93.0499 171.931 93.0499C173.727 93.0499 175.183 94.5058 175.183 96.3017Z" fill="#141730"/>
<path d="M189.271 99.5534C191.067 99.5534 192.523 98.0975 192.523 96.3017C192.523 94.5058 191.067 93.0499 189.271 93.0499C187.475 93.0499 186.02 94.5058 186.02 96.3017C186.02 98.0975 187.475 99.5534 189.271 99.5534Z" fill="#141730"/>
<path fill-rule="evenodd" clip-rule="evenodd" d="M214.201 62.7006L199.026 116.896L198.598 116.776H162.603L162.175 116.896L147 62.7006L148.972 62.1485L152.259 73.8881C153.863 72.9888 155.509 72.5157 157.189 72.5157C159.408 72.5157 161.568 73.3413 163.652 74.8847C165.47 76.2317 167.213 76.8514 168.895 76.8514C170.578 76.8514 172.321 76.2317 174.139 74.8847C176.223 73.3413 178.382 72.5157 180.601 72.5157C182.821 72.5157 184.98 73.3413 187.064 74.8847C188.882 76.2317 190.625 76.8514 192.308 76.8514C193.99 76.8514 195.733 76.2317 197.551 74.8847C199.635 73.3413 201.795 72.5157 204.014 72.5157C205.693 72.5157 207.338 72.9885 208.942 73.8872L212.229 62.1484L214.201 62.7006ZM208.371 75.9271L197.507 114.728H163.694L152.83 75.9281C154.331 74.9974 155.781 74.5635 157.189 74.5635C158.872 74.5635 160.614 75.1832 162.433 76.5302C164.516 78.0736 166.676 78.8991 168.895 78.8991C171.115 78.8991 173.274 78.0736 175.358 76.5302C177.176 75.1832 178.919 74.5635 180.601 74.5635C182.284 74.5635 184.027 75.1832 185.845 76.5302C187.929 78.0736 190.088 78.8991 192.308 78.8991C194.527 78.8991 196.687 78.0736 198.77 76.5302C200.589 75.1832 202.331 74.5635 204.014 74.5635C205.421 74.5635 206.871 74.9971 208.371 75.9271Z" fill="#141730"/>
<path d="M418.768 150.704V152H411.312V140.8H412.768V150.704H418.768Z" fill="#141730"/>
<path d="M424.691 152.16C421.699 152.16 419.283 150.32 419.283 146.4C419.283 142.48 421.699 140.64 424.691 140.64C427.699 140.64 430.115 142.48 430.115 146.4C430.115 150.32 427.699 152.16 424.691 152.16ZM424.691 150.864C426.995 150.864 428.579 149.392 428.579 146.4C428.579 143.408 426.995 141.936 424.691 141.936C422.403 141.936 420.819 143.408 420.819 146.4C420.819 149.392 422.403 150.864 424.691 150.864Z" fill="#141730"/>
<path d="M430.952 140.8H432.472L434.184 146.496C434.632 147.968 434.888 149.024 435.144 150.192C435.432 149.024 435.704 147.968 436.152 146.496L437.896 140.8H439.256L441 146.496C441.448 147.968 441.72 149.024 442.008 150.192C442.264 149.024 442.52 147.968 442.968 146.496L444.68 140.8H446.2L442.68 152H441.384L439.592 146.176C439.144 144.72 438.856 143.744 438.568 142.576C438.296 143.744 438.008 144.72 437.56 146.176L435.768 152H434.472L430.952 140.8Z" fill="#141730"/>
<path d="M452.112 140.8V145.664H458.784V140.8H460.256V152H458.784V146.96H452.112V152H450.656V140.8H452.112Z" fill="#141730"/>
<path d="M462.715 152V140.8H470.171V142.096H464.171V145.664H469.531V146.96H464.171V150.704H470.331V152H462.715Z" fill="#141730"/>
<path d="M480.051 152L478.963 149.152H473.795L472.707 152H471.155L475.587 140.8H477.171L481.603 152H480.051ZM474.691 146.816L474.291 147.856H478.483L478.083 146.816C477.331 144.848 476.803 143.408 476.387 142.016C475.971 143.408 475.427 144.848 474.691 146.816Z" fill="#141730"/>
<path d="M480.511 140.8H489.775V142.096H485.871V152H484.399V142.096H480.511V140.8Z" fill="#141730"/>
<path d="M453.349 89.2149C453.349 91.0107 451.893 92.4666 450.097 92.4666C448.302 92.4666 446.846 91.0107 446.846 89.2149C446.846 87.419 448.302 85.9631 450.097 85.9631C451.893 85.9631 453.349 87.419 453.349 89.2149Z" fill="#141730"/>
<path fill-rule="evenodd" clip-rule="evenodd" d="M472.86 89.2149C472.86 101.786 462.669 111.977 450.098 111.977C437.527 111.977 427.336 101.786 427.336 89.2149C427.336 76.6438 437.527 66.4529 450.098 66.4529C462.669 66.4529 472.86 76.6438 472.86 89.2149ZM470.812 89.2149C470.812 100.655 461.538 109.929 450.098 109.929C438.658 109.929 429.384 100.655 429.384 89.2149C429.384 77.7747 438.658 68.5007 450.098 68.5007C461.538 68.5007 470.812 77.7747 470.812 89.2149Z" fill="#141730"/>
<path fill-rule="evenodd" clip-rule="evenodd" d="M423 62.1172V116.312H477.195V62.1172H423ZM475.148 64.165H425.048V114.265H475.148V64.165Z" fill="#141730"/>
<path d="M913.687 155.457L912.599 152.609H907.431L906.343 155.457H904.791L909.223 144.257H910.807L915.239 155.457H913.687ZM908.327 150.273L907.927 151.313H912.119L911.719 150.273C910.967 148.305 910.439 146.865 910.023 145.473C909.607 146.865 909.063 148.305 908.327 150.273Z" fill="#141730"/>
<path d="M916.64 155.457V144.257H918.672L922.88 150.113C923.552 151.057 924.224 151.921 924.864 153.057C924.816 152.097 924.8 150.977 924.8 150.001V144.257H926.24V155.457H924.944L919.728 148.113C919.008 147.105 918.496 146.369 918.032 145.553C918.064 146.465 918.08 147.377 918.08 148.321V155.457H916.64Z" fill="#141730"/>
<path d="M933.995 147.601L936.123 144.257H937.771L933.403 151.025V155.457H931.947V151.057L927.579 144.257H929.227L931.339 147.601C931.803 148.337 932.267 149.089 932.667 149.857C933.083 149.089 933.531 148.337 933.995 147.601Z" fill="#141730"/>
<path d="M941.876 147.249C941.876 145.249 943.476 144.097 945.78 144.097C948.388 144.097 949.988 145.473 950.036 147.457H948.5C948.404 146.177 947.412 145.361 945.78 145.361C944.324 145.361 943.348 146.081 943.348 147.185C943.348 150.241 950.244 147.825 950.244 152.305C950.244 154.449 948.468 155.617 946.1 155.617C943.364 155.617 941.54 154.177 941.508 152.049H943.028C943.124 153.441 944.276 154.353 946.1 154.353C947.7 154.353 948.772 153.569 948.772 152.369C948.772 149.281 941.876 151.697 941.876 147.249Z" fill="#141730"/>
<path d="M957.211 155.617C954.219 155.617 951.803 153.777 951.803 149.857C951.803 145.937 954.219 144.097 957.211 144.097C960.219 144.097 962.635 145.937 962.635 149.857C962.635 153.777 960.219 155.617 957.211 155.617ZM957.211 154.321C959.515 154.321 961.099 152.849 961.099 149.857C961.099 146.865 959.515 145.393 957.211 145.393C954.923 145.393 953.339 146.865 953.339 149.857C953.339 152.849 954.923 154.321 957.211 154.321Z" fill="#141730"/>
<path d="M972.14 154.161V155.457H964.684V144.257H966.14V154.161H972.14Z" fill="#141730"/>
<path d="M975.009 155.457L970.577 144.257H972.129L974.113 149.441C974.817 151.297 975.313 152.673 975.649 153.745C976.001 152.673 976.497 151.297 977.201 149.441L979.185 144.257H980.737L976.305 155.457H975.009Z" fill="#141730"/>
<path d="M982.145 155.457V144.257H989.601V145.553H983.601V149.121H988.961V150.417H983.601V154.161H989.761V155.457H982.145Z" fill="#141730"/>
<path d="M991.641 155.457V144.257H993.673L997.881 150.113C998.553 151.057 999.225 151.921 999.865 153.057C999.817 152.097 999.801 150.977 999.801 150.001V144.257H1001.24V155.457H999.945L994.729 148.113C994.009 147.105 993.497 146.369 993.033 145.553C993.065 146.465 993.081 147.377 993.081 148.321V155.457H991.641Z" fill="#141730"/>
<path d="M1002.64 144.257H1011.91V145.553H1008V155.457H1006.53V145.553H1002.64V144.257Z" fill="#141730"/>
<path d="M1016.21 155.457V144.257H1023.66V145.553H1017.66V149.121H1023.02V150.417H1017.66V154.161H1023.82V155.457H1016.21Z" fill="#141730"/>
<path d="M1032.33 155.457L1030.25 152.177C1029.93 151.665 1029.58 151.057 1029.29 150.545C1029 151.073 1028.63 151.665 1028.31 152.177L1026.23 155.457H1024.58L1028.36 149.697L1024.79 144.257H1026.46L1028.3 147.185C1028.65 147.713 1029 148.305 1029.29 148.833C1029.58 148.305 1029.93 147.713 1030.26 147.185L1032.12 144.257H1033.78L1030.2 149.713L1033.99 155.457H1032.33Z" fill="#141730"/>
<path d="M1043.24 151.297H1044.79C1044.57 154.033 1042.68 155.617 1039.77 155.617C1036.78 155.617 1034.36 153.777 1034.36 149.857C1034.36 145.937 1036.78 144.097 1039.77 144.097C1042.68 144.097 1044.57 145.681 1044.79 148.417H1043.24C1043.07 146.465 1041.77 145.393 1039.77 145.393C1037.48 145.393 1035.9 146.865 1035.9 149.857C1035.9 152.849 1037.48 154.321 1039.77 154.321C1041.77 154.321 1043.07 153.249 1043.24 151.297Z" fill="#141730"/>
<path d="M1046.76 155.457V144.257H1054.22V145.553H1048.22V149.121H1053.58V150.417H1048.22V154.161H1054.38V155.457H1046.76Z" fill="#141730"/>
<path d="M1056.26 155.457V144.257H1060.85C1063.31 144.257 1065.02 145.489 1065.02 147.985C1065.02 150.481 1063.31 151.713 1060.85 151.713H1057.71V155.457H1056.26ZM1060.7 145.553H1057.71V150.417H1060.7C1062.43 150.417 1063.49 149.745 1063.49 147.985C1063.49 146.225 1062.43 145.553 1060.7 145.553Z" fill="#141730"/>
<path d="M1065.85 144.257H1075.12V145.553H1071.21V155.457H1069.74V145.553H1065.85V144.257Z" fill="#141730"/>
<path d="M896.14 168.257H905.404V169.553H901.5V179.457H900.028V169.553H896.14V168.257Z" fill="#141730"/>
<path d="M906.818 179.457V168.257H914.274V169.553H908.274V173.121H913.634V174.417H908.274V178.161H914.434V179.457H906.818Z" fill="#141730"/>
<path d="M915.258 168.257H924.522V169.553H920.618V179.457H919.146V169.553H915.258V168.257Z" fill="#141730"/>
<path d="M934.847 179.457H933.151C932.959 179.169 932.879 178.737 932.879 178.193V176.433C932.879 175.265 932.415 174.705 931.279 174.705H927.391V179.457H925.935V168.257H930.655C933.007 168.257 934.559 169.313 934.559 171.201C934.559 172.641 933.695 173.457 932.351 173.761C933.647 173.905 934.367 174.721 934.367 176.289V177.473C934.367 178.433 934.495 179.041 934.847 179.457ZM930.655 169.553H927.391V173.409H930.655C932.127 173.409 932.943 172.785 932.943 171.473C932.943 170.161 932.127 169.553 930.655 169.553Z" fill="#141730"/>
<path d="M944.678 179.457L943.59 176.609H938.422L937.334 179.457H935.782L940.214 168.257H941.798L946.23 179.457H944.678ZM939.318 174.273L938.918 175.313H943.11L942.71 174.273C941.958 172.305 941.43 170.865 941.014 169.473C940.598 170.865 940.054 172.305 939.318 174.273Z" fill="#141730"/>
<path d="M955.86 175.297H957.412C957.188 178.033 955.3 179.617 952.388 179.617C949.396 179.617 946.98 177.777 946.98 173.857C946.98 169.937 949.396 168.097 952.388 168.097C955.3 168.097 957.188 169.681 957.412 172.417H955.86C955.684 170.465 954.388 169.393 952.388 169.393C950.1 169.393 948.516 170.865 948.516 173.857C948.516 176.849 950.1 178.321 952.388 178.321C954.388 178.321 955.684 177.249 955.86 175.297Z" fill="#141730"/>
<path d="M960.833 168.257V173.121H967.505V168.257H968.977V179.457H967.505V174.417H960.833V179.457H959.377V168.257H960.833Z" fill="#141730"/>
<path d="M978.892 178.161V179.457H971.436V168.257H972.892V178.161H978.892Z" fill="#141730"/>
<path d="M984.815 179.617C981.823 179.617 979.407 177.777 979.407 173.857C979.407 169.937 981.823 168.097 984.815 168.097C987.823 168.097 990.239 169.937 990.239 173.857C990.239 177.777 987.823 179.617 984.815 179.617ZM984.815 178.321C987.119 178.321 988.703 176.849 988.703 173.857C988.703 170.865 987.119 169.393 984.815 169.393C982.527 169.393 980.943 170.865 980.943 173.857C980.943 176.849 982.527 178.321 984.815 178.321Z" fill="#141730"/>
<path d="M1001.2 179.457H999.504C999.312 179.169 999.232 178.737 999.232 178.193V176.433C999.232 175.265 998.768 174.705 997.632 174.705H993.744V179.457H992.288V168.257H997.008C999.36 168.257 1000.91 169.313 1000.91 171.201C1000.91 172.641 1000.05 173.457 998.704 173.761C1000 173.905 1000.72 174.721 1000.72 176.289V177.473C1000.72 178.433 1000.85 179.041 1001.2 179.457ZM997.008 169.553H993.744V173.409H997.008C998.48 173.409 999.296 172.785 999.296 171.473C999.296 170.161 998.48 169.553 997.008 169.553Z" fill="#141730"/>
<path d="M1003.19 179.457V168.257H1010.65V169.553H1004.65V173.121H1010.01V174.417H1004.65V178.161H1010.81V179.457H1003.19Z" fill="#141730"/>
<path d="M1011.63 168.257H1020.89V169.553H1016.99V179.457H1015.52V169.553H1011.63V168.257Z" fill="#141730"/>
<path d="M1023.76 168.257V173.121H1030.44V168.257H1031.91V179.457H1030.44V174.417H1023.76V179.457H1022.31V168.257H1023.76Z" fill="#141730"/>
<path d="M1039.66 171.601L1041.79 168.257H1043.44L1039.07 175.025V179.457H1037.61V175.057L1033.25 168.257H1034.89L1037.01 171.601C1037.47 172.337 1037.93 173.089 1038.33 173.857C1038.75 173.089 1039.2 172.337 1039.66 171.601Z" fill="#141730"/>
<path d="M1052.24 178.161V179.457H1044.78V168.257H1046.24V178.161H1052.24Z" fill="#141730"/>
<path d="M1053.66 179.457V168.257H1061.11V169.553H1055.11V173.121H1060.47V174.417H1055.11V178.161H1061.27V179.457H1053.66Z" fill="#141730"/>
<path d="M1063.15 179.457V168.257H1065.18L1069.39 174.113C1070.06 175.057 1070.74 175.921 1071.38 177.057C1071.33 176.097 1071.31 174.977 1071.31 174.001V168.257H1072.75V179.457H1071.46L1066.24 172.113C1065.52 171.105 1065.01 170.369 1064.54 169.553C1064.58 170.465 1064.59 171.377 1064.59 172.321V179.457H1063.15Z" fill="#141730"/>
<path d="M1075.21 179.457V168.257H1082.67V169.553H1076.67V173.121H1082.03V174.417H1076.67V178.161H1082.83V179.457H1075.21Z" fill="#141730"/>
<path d="M657.312 152V140.8H661.088C664.64 140.8 666.864 142.928 666.864 146.4C666.864 149.872 664.64 152 661.088 152H657.312ZM660.944 142.096H658.768V150.704H660.944C663.696 150.704 665.328 149.296 665.328 146.4C665.328 143.504 663.696 142.096 660.944 142.096Z" fill="#141730"/>
<path d="M673.91 152.16C670.918 152.16 668.502 150.32 668.502 146.4C668.502 142.48 670.918 140.64 673.91 140.64C676.918 140.64 679.334 142.48 679.334 146.4C679.334 150.32 676.918 152.16 673.91 152.16ZM673.91 150.864C676.214 150.864 677.798 149.392 677.798 146.4C677.798 143.408 676.214 141.936 673.91 141.936C671.622 141.936 670.038 143.408 670.038 146.4C670.038 149.392 671.622 150.864 673.91 150.864Z" fill="#141730"/>
<path d="M684.582 152V140.8H686.614L690.822 146.656C691.494 147.6 692.166 148.464 692.806 149.6C692.758 148.64 692.742 147.52 692.742 146.544V140.8H694.182V152H692.886L687.67 144.656C686.95 143.648 686.438 142.912 685.974 142.096C686.006 143.008 686.022 143.92 686.022 144.864V152H684.582Z" fill="#141730"/>
<path d="M701.633 152.16C698.641 152.16 696.225 150.32 696.225 146.4C696.225 142.48 698.641 140.64 701.633 140.64C704.641 140.64 707.057 142.48 707.057 146.4C707.057 150.32 704.641 152.16 701.633 152.16ZM701.633 150.864C703.937 150.864 705.521 149.392 705.521 146.4C705.521 143.408 703.937 141.936 701.633 141.936C699.345 141.936 697.761 143.408 697.761 146.4C697.761 149.392 699.345 150.864 701.633 150.864Z" fill="#141730"/>
<path d="M707.565 140.8H716.829V142.096H712.925V152H711.453V142.096H707.565V140.8Z" fill="#141730"/>
<path d="M721.13 152V140.8H725.833C727.945 140.8 729.321 141.84 729.321 143.6C729.321 144.784 728.586 145.616 727.45 145.952C728.938 146.304 729.882 147.312 729.882 148.832C729.882 150.832 728.377 152 726.185 152H721.13ZM725.69 142.096H722.586V145.664H725.69C727.034 145.664 727.786 145.104 727.786 143.888C727.786 142.672 727.034 142.096 725.69 142.096ZM726.042 150.704C727.482 150.704 728.346 150.16 728.346 148.832C728.346 147.52 727.482 146.96 726.042 146.96H722.586V150.704H726.042Z" fill="#141730"/>
<path d="M739.3 150.704V152H731.844V140.8H733.3V150.704H739.3Z" fill="#141730"/>
<path d="M740.716 152V140.8H748.172V142.096H742.172V145.664H747.532V146.96H742.172V150.704H748.332V152H740.716Z" fill="#141730"/>
<path d="M758.052 152L756.964 149.152H751.796L750.708 152H749.156L753.588 140.8H755.172L759.604 152H758.052ZM752.692 146.816L752.292 147.856H756.484L756.084 146.816C755.332 144.848 754.804 143.408 754.388 142.016C753.972 143.408 753.428 144.848 752.692 146.816Z" fill="#141730"/>
<path d="M769.235 147.84H770.787C770.563 150.576 768.675 152.16 765.763 152.16C762.771 152.16 760.355 150.32 760.355 146.4C760.355 142.48 762.771 140.64 765.763 140.64C768.675 140.64 770.563 142.224 770.787 144.96H769.235C769.059 143.008 767.763 141.936 765.763 141.936C763.475 141.936 761.891 143.408 761.891 146.4C761.891 149.392 763.475 150.864 765.763 150.864C767.763 150.864 769.059 149.792 769.235 147.84Z" fill="#141730"/>
<path d="M774.207 140.8V145.664H780.879V140.8H782.351V152H780.879V146.96H774.207V152H772.751V140.8H774.207Z" fill="#141730"/>
<path fill-rule="evenodd" clip-rule="evenodd" d="M705.046 114.195L699.242 120L697.794 118.552L702.15 114.195H692L706.819 85.6973L698.464 77.3425L699.912 75.8945L707.81 83.7921L720.182 60L732.554 83.7922L740.451 75.8945L741.899 77.3425L733.544 85.6974L748.363 114.195H738.213L742.57 118.552L741.122 120L735.317 114.195H705.046ZM731.035 85.3107L720.182 64.4386L709.328 85.3106L720.182 96.1641L731.035 85.3107ZM721.63 97.6121L732.026 87.2159L744.99 112.148H736.165L721.63 97.6121ZM718.734 97.6121L708.337 87.2158L695.373 112.148H704.198L718.734 97.6121ZM707.094 112.148L720.182 99.0601L733.269 112.148H707.094Z" fill="#141730"/>
<path d="M1199.77 140.683V151.883H1198.31V140.683H1199.77Z" fill="#141730"/>
<path d="M1211.14 151.883H1209.45C1209.25 151.595 1209.17 151.163 1209.17 150.619V148.859C1209.17 147.691 1208.71 147.131 1207.57 147.131H1203.69V151.883H1202.23V140.683H1206.95C1209.3 140.683 1210.85 141.739 1210.85 143.627C1210.85 145.067 1209.99 145.883 1208.65 146.187C1209.94 146.331 1210.66 147.147 1210.66 148.715V149.899C1210.66 150.859 1210.79 151.467 1211.14 151.883ZM1206.95 141.979H1203.69V145.835H1206.95C1208.42 145.835 1209.24 145.211 1209.24 143.899C1209.24 142.587 1208.42 141.979 1206.95 141.979Z" fill="#141730"/>
<path d="M1218.12 152.043C1215.13 152.043 1212.72 150.203 1212.72 146.283C1212.72 142.363 1215.13 140.523 1218.12 140.523C1221.13 140.523 1223.55 142.363 1223.55 146.283C1223.55 150.203 1221.13 152.043 1218.12 152.043ZM1218.12 150.747C1220.43 150.747 1222.01 149.275 1222.01 146.283C1222.01 143.291 1220.43 141.819 1218.12 141.819C1215.84 141.819 1214.25 143.291 1214.25 146.283C1214.25 149.275 1215.84 150.747 1218.12 150.747Z" fill="#141730"/>
<path d="M1225.6 151.883V140.683H1227.63L1231.84 146.539C1232.51 147.483 1233.18 148.347 1233.82 149.483C1233.77 148.523 1233.76 147.403 1233.76 146.427V140.683H1235.2V151.883H1233.9L1228.69 144.539C1227.97 143.531 1227.45 142.795 1226.99 141.979C1227.02 142.891 1227.04 143.803 1227.04 144.747V151.883H1225.6Z" fill="#141730"/>
<path d="M1248.31 150.587V151.883H1240.86V140.683H1242.31V150.587H1248.31Z" fill="#141730"/>
<path d="M1254.23 152.043C1251.24 152.043 1248.83 150.203 1248.83 146.283C1248.83 142.363 1251.24 140.523 1254.23 140.523C1257.24 140.523 1259.66 142.363 1259.66 146.283C1259.66 150.203 1257.24 152.043 1254.23 152.043ZM1254.23 150.747C1256.54 150.747 1258.12 149.275 1258.12 146.283C1258.12 143.291 1256.54 141.819 1254.23 141.819C1251.95 141.819 1250.36 143.291 1250.36 146.283C1250.36 149.275 1251.95 150.747 1254.23 150.747Z" fill="#141730"/>
<path d="M1260.5 140.683H1262.02L1263.73 146.379C1264.18 147.851 1264.43 148.907 1264.69 150.075C1264.98 148.907 1265.25 147.851 1265.7 146.379L1267.44 140.683H1268.8L1270.54 146.379C1270.99 147.851 1271.26 148.907 1271.55 150.075C1271.81 148.907 1272.06 147.851 1272.51 146.379L1274.22 140.683H1275.74L1272.22 151.883H1270.93L1269.14 146.059C1268.69 144.603 1268.4 143.627 1268.11 142.459C1267.84 143.627 1267.55 144.603 1267.1 146.059L1265.31 151.883H1264.02L1260.5 140.683Z" fill="#141730"/>
<path d="M1278.83 140.683H1288.1V141.979H1284.19V151.883H1282.72V141.979H1278.83V140.683Z" fill="#141730"/>
<path d="M1289.51 151.883V140.683H1296.96V141.979H1290.96V145.547H1296.32V146.843H1290.96V150.587H1297.12V151.883H1289.51Z" fill="#141730"/>
<path d="M1304.32 151.883L1301.66 145.243C1301.04 143.675 1300.7 142.827 1300.33 141.723C1300.41 142.923 1300.45 144.171 1300.45 145.547V151.883H1299.01V140.683H1301.37L1303.47 145.979C1304.29 148.091 1304.67 149.227 1304.96 150.187C1305.26 149.227 1305.65 148.091 1306.46 145.979L1308.56 140.683H1310.93V151.883H1309.49V145.547C1309.49 144.171 1309.52 142.923 1309.6 141.723C1309.23 142.827 1308.89 143.675 1308.27 145.243L1305.61 151.883H1304.32Z" fill="#141730"/>
<path d="M1313.39 151.883V140.683H1317.98C1320.45 140.683 1322.16 141.915 1322.16 144.411C1322.16 146.907 1320.45 148.139 1317.98 148.139H1314.85V151.883H1313.39ZM1317.84 141.979H1314.85V146.843H1317.84C1319.57 146.843 1320.62 146.171 1320.62 144.411C1320.62 142.651 1319.57 141.979 1317.84 141.979Z" fill="#141730"/>
<path d="M1260.27 103.088C1262.06 103.088 1263.52 101.632 1263.52 99.836C1263.52 98.0401 1262.06 96.5843 1260.27 96.5843C1258.47 96.5843 1257.02 98.0401 1257.02 99.836C1257.02 101.632 1258.47 103.088 1260.27 103.088Z" fill="#141730"/>
<path fill-rule="evenodd" clip-rule="evenodd" d="M1249.43 67.2587H1278.94L1282.83 85.8052H1249.43C1241.96 85.8052 1237.04 89.5765 1234.04 94.8594C1231.07 100.084 1229.98 106.785 1229.98 112.843V113.867H1290.79L1280.61 65.2109H1249.43V67.2587ZM1249.43 87.8529H1283.25L1288.27 111.819H1232.04C1232.15 106.252 1233.25 100.393 1235.82 95.8702C1238.51 91.127 1242.8 87.8529 1249.43 87.8529Z" fill="#141730"/>
<path fill-rule="evenodd" clip-rule="evenodd" d="M990.272 115.16C1004.12 115.16 1015.35 103.932 1015.35 90.0802C1015.35 76.2288 1004.12 65 990.272 65C976.42 65 965.191 76.2288 965.191 90.0802C965.191 103.932 976.42 115.16 990.272 115.16ZM990.272 113.265C1003.08 113.265 1013.46 102.885 1013.46 90.0802C1013.46 77.2755 1003.08 66.8953 990.272 66.8953C977.467 66.8953 967.087 77.2755 967.087 90.0802C967.087 102.885 977.467 113.265 990.272 113.265Z" fill="#141730"/>
<path d="M984.441 99.2453V82.8629H989.749C991.761 82.8629 993.072 82.9448 993.683 83.1087C994.622 83.3546 995.408 83.891 996.041 84.7179C996.674 85.5374 996.991 86.599 996.991 87.9028C996.991 88.9085 996.808 89.7541 996.443 90.4395C996.078 91.1249 995.613 91.665 995.046 92.0599C994.488 92.4473 993.918 92.7043 993.337 92.8309C992.547 92.9874 991.403 93.0656 989.906 93.0656H987.749V99.2453H984.441ZM987.749 85.6343V90.2831H989.56C990.863 90.2831 991.735 90.1974 992.174 90.026C992.614 89.8547 992.957 89.5865 993.203 89.2214C993.456 88.8564 993.582 88.4317 993.582 87.9475C993.582 87.3515 993.407 86.8598 993.057 86.4724C992.707 86.085 992.264 85.8429 991.727 85.746C991.333 85.6715 990.539 85.6343 989.347 85.6343H987.749Z" fill="#141730"/>
</svg>
