<svg width="630" height="111" viewBox="0 0 630 111" fill="none" xmlns="http://www.w3.org/2000/svg">
<circle cx="15" cy="15" r="14.5" transform="matrix(4.37114e-08 1 1 -4.37114e-08 600 0)" stroke="#141730"/>
<path fill-rule="evenodd" clip-rule="evenodd" d="M620 13.9656L619.041 13L615 17.0689L610.959 13L610 13.9656L615 19L620 13.9656Z" fill="#141730"/>
<circle cx="615" cy="80" r="14.5" transform="rotate(90 615 80)" stroke="#141730"/>
<path fill-rule="evenodd" clip-rule="evenodd" d="M610 78.9656L610.959 78L615 82.0689L619.041 78L620 78.9656L615 84L610 78.9656Z" fill="#141730"/>
<path d="M23.312 21V9.8H27.088C30.64 9.8 32.864 11.928 32.864 15.4C32.864 18.872 30.64 21 27.088 21H23.312ZM26.944 11.096H24.768V19.704H26.944C29.696 19.704 31.328 18.296 31.328 15.4C31.328 12.504 29.696 11.096 26.944 11.096ZM34.9176 21V9.8H42.3736V11.096H36.3736V14.664H41.7336V15.96H36.3736V19.704H42.5336V21H34.9176ZM43.3579 9.8H52.6219V11.096H48.7179V21H47.2459V11.096H43.3579V9.8ZM60.4376 21L59.3496 18.152H54.1816L53.0936 21H51.5416L55.9736 9.8H57.5576L61.9896 21H60.4376ZM55.0776 15.816L54.6776 16.856H58.8696L58.4696 15.816C57.7176 13.848 57.1896 12.408 56.7736 11.016C56.3576 12.408 55.8136 13.848 55.0776 15.816ZM64.8468 9.8V21H63.3908V9.8H64.8468ZM74.7649 19.704V21H67.3089V9.8H68.7649V19.704H74.7649ZM75.5678 12.792C75.5678 10.792 77.1678 9.64 79.4718 9.64C82.0798 9.64 83.6798 11.016 83.7278 13H82.1918C82.0958 11.72 81.1038 10.904 79.4718 10.904C78.0158 10.904 77.0398 11.624 77.0398 12.728C77.0398 15.784 83.9358 13.368 83.9358 17.848C83.9358 19.992 82.1598 21.16 79.7918 21.16C77.0558 21.16 75.2318 19.72 75.1998 17.592H76.7198C76.8158 18.984 77.9678 19.896 79.7918 19.896C81.3918 19.896 82.4638 19.112 82.4638 17.912C82.4638 14.824 75.5678 17.24 75.5678 12.792Z" fill="#141730"/>
<path d="M11.9254 14.3928C12.0249 14.4296 12.0249 14.5704 11.9254 14.6072L11.0011 14.9492C9.12389 15.6438 7.64384 17.1239 6.94922 19.0011L6.6072 19.9254C6.57037 20.0249 6.42963 20.0249 6.3928 19.9254L6.05078 19.0011C5.35616 17.1239 3.87612 15.6438 1.99893 14.9492L1.07464 14.6072C0.975123 14.5704 0.975124 14.4296 1.07464 14.3928L1.99893 14.0508C3.87612 13.3562 5.35616 11.8761 6.05078 9.99893L6.3928 9.07463C6.42963 8.97512 6.57038 8.97512 6.6072 9.07463L6.94922 9.99893C7.64384 11.8761 9.12389 13.3562 11.0011 14.0508L11.9254 14.3928Z" fill="#C1001F"/>
<path d="M23.312 86V74.8H27.088C30.64 74.8 32.864 76.928 32.864 80.4C32.864 83.872 30.64 86 27.088 86H23.312ZM26.944 76.096H24.768V84.704H26.944C29.696 84.704 31.328 83.296 31.328 80.4C31.328 77.504 29.696 76.096 26.944 76.096ZM39.9096 86.16C36.9176 86.16 34.5016 84.32 34.5016 80.4C34.5016 76.48 36.9176 74.64 39.9096 74.64C42.9176 74.64 45.3336 76.48 45.3336 80.4C45.3336 84.32 42.9176 86.16 39.9096 86.16ZM39.9096 84.864C42.2136 84.864 43.7976 83.392 43.7976 80.4C43.7976 77.408 42.2136 75.936 39.9096 75.936C37.6216 75.936 36.0376 77.408 36.0376 80.4C36.0376 83.392 37.6216 84.864 39.9096 84.864ZM46.1704 74.8H47.6904L49.4024 80.496C49.8504 81.968 50.1064 83.024 50.3624 84.192C50.6504 83.024 50.9224 81.968 51.3704 80.496L53.1144 74.8H54.4744L56.2184 80.496C56.6664 81.968 56.9384 83.024 57.2264 84.192C57.4824 83.024 57.7384 81.968 58.1864 80.496L59.8984 74.8H61.4184L57.8984 86H56.6024L54.8104 80.176C54.3624 78.72 54.0744 77.744 53.7864 76.576C53.5144 77.744 53.2264 78.72 52.7784 80.176L50.9864 86H49.6904L46.1704 74.8ZM62.832 86V74.8H64.864L69.072 80.656C69.744 81.6 70.416 82.464 71.056 83.6C71.008 82.64 70.992 81.52 70.992 80.544V74.8H72.432V86H71.136L65.92 78.656C65.2 77.648 64.688 76.912 64.224 76.096C64.256 77.008 64.272 77.92 64.272 78.864V86H62.832ZM82.3468 84.704V86H74.8908V74.8H76.3468V84.704H82.3468ZM88.2696 86.16C85.2776 86.16 82.8616 84.32 82.8616 80.4C82.8616 76.48 85.2776 74.64 88.2696 74.64C91.2776 74.64 93.6936 76.48 93.6936 80.4C93.6936 84.32 91.2776 86.16 88.2696 86.16ZM88.2696 84.864C90.5736 84.864 92.1576 83.392 92.1576 80.4C92.1576 77.408 90.5736 75.936 88.2696 75.936C85.9816 75.936 84.3976 77.408 84.3976 80.4C84.3976 83.392 85.9816 84.864 88.2696 84.864ZM103.348 86L102.26 83.152H97.0923L96.0043 86H94.4523L98.8843 74.8H100.468L104.9 86H103.348ZM97.9883 80.816L97.5883 81.856H101.78L101.38 80.816C100.628 78.848 100.1 77.408 99.6843 76.016C99.2683 77.408 98.7243 78.848 97.9883 80.816ZM106.301 86V74.8H110.077C113.629 74.8 115.853 76.928 115.853 80.4C115.853 83.872 113.629 86 110.077 86H106.301ZM109.933 76.096H107.757V84.704H109.933C112.685 84.704 114.317 83.296 114.317 80.4C114.317 77.504 112.685 76.096 109.933 76.096Z" fill="#141730"/>
<path d="M11.9254 79.3928C12.0249 79.4296 12.0249 79.5704 11.9254 79.6072L11.0011 79.9492C9.12389 80.6438 7.64384 82.1239 6.94922 84.0011L6.6072 84.9254C6.57037 85.0249 6.42963 85.0249 6.3928 84.9254L6.05078 84.0011C5.35616 82.1239 3.87612 80.6438 1.99893 79.9492L1.07464 79.6072C0.975123 79.5704 0.975123 79.4296 1.07464 79.3928L1.99893 79.0508C3.87612 78.3562 5.35616 76.8761 6.05078 74.9989L6.3928 74.0746C6.42963 73.9751 6.57038 73.9751 6.6072 74.0746L6.94922 74.9989C7.64384 76.8761 9.12389 78.3562 11.0011 79.0508L11.9254 79.3928Z" fill="#C1001F"/>
<path d="M0 45L630 44.9999" stroke="#141730" stroke-width="2" stroke-dasharray="3 4"/>
<path d="M0 110L630 110" stroke="#141730" stroke-width="2" stroke-dasharray="3 4"/>
</svg>
